<?xml version="1.0" encoding="utf-8"?>
<!-- Generator: Adobe Illustrator 15.0.0, SVG Export Plug-In . SVG Version: 6.00 Build 0)  -->
<!DOCTYPE svg PUBLIC "-//W3C//DTD SVG 1.1//EN" "http://www.w3.org/Graphics/SVG/1.1/DTD/svg11.dtd">
<svg version="1.1" xmlns="http://www.w3.org/2000/svg" xmlns:xlink="http://www.w3.org/1999/xlink" x="0px" y="0px" width="288px"
	 height="449px" viewBox="0 0 288 449" enable-background="new 0 0 288 449" xml:space="preserve">
<g id="back" display="none">
	<path display="inline" fill-rule="evenodd" clip-rule="evenodd" fill="#F8941C" d="M271.86,0H122.14
		C109.08,0,98.5,10.58,98.5,23.64v315.72c0,13.06,10.58,23.64,23.64,23.64h149.72c13.06,0,23.64-10.58,23.64-23.64V23.64
		C295.5,10.58,284.92,0,271.86,0z"/>
	
		<path display="inline" fill-rule="evenodd" clip-rule="evenodd" fill="#FAB35F" stroke="#FFFFFF" stroke-linecap="round" stroke-linejoin="round" stroke-miterlimit="10" d="
		M120.5,32.5c0-6.35,4.92-11.5,11-11.5s11,5.15,11,11.5s-4.92,11.5-11,11.5S120.5,38.85,120.5,32.5z"/>
	
		<circle display="inline" fill-rule="evenodd" clip-rule="evenodd" fill="#FFFFFF" stroke="#FFFFFF" stroke-linecap="round" stroke-linejoin="round" stroke-miterlimit="10" cx="154.5" cy="32.5" r="4"/>
</g>
<g id="QR">
	<polygon fill-rule="evenodd" clip-rule="evenodd" fill="#FBC98C" points="79.5,21 63.5,207 157.5,207 157.5,303 280.5,222 
		194.5,222 194.5,126 80.5,126 	"/>
	
		<rect x="81.66" y="22" fill-rule="evenodd" clip-rule="evenodd" fill="none" stroke="#FAB35F" stroke-width="4" stroke-linecap="round" stroke-linejoin="round" stroke-miterlimit="10" width="198.84" height="198.77"/>
	<path fill="#F8941C" d="M94,76.5v-42h6v42H94z M94,94.5v-12h6v12H94z M94,112.5v-6h6v6H94z M94,124.5v-6h6v6H94z M94,136.5v-6h6v6
		H94z M94,208.5v-42h6v42H94z M100,40.5v-6h6v6H100z M100,76.5v-6h6v6H100z M100,124.5v-24h6v24H100z M100,172.5v-6h6v6H100z
		 M100,208.5v-6h6v6H100z M106,40.5v-6h6v6H106z M106,64.5v-18h6v18H106z M106,76.5v-6h6v6H106z M106,118.5v-24h6v24H106z
		 M106,148.5v-24h6v24H106z M106,160.5v-6h6v6H106z M106,172.5v-6h6v6H106z M106,196.5v-18h6v18H106z M106,208.5v-6h6v6H106z
		 M112,40.5v-6h6v6H112z M112,64.5v-18h6v18H112z M112,76.5v-6h6v6H112z M112,88.5v-6h6v6H112z M112,100.5v-6h6v6H112z M112,118.5
		v-6h6v6H112z M112,142.5v-6h6v6H112z M112,154.5v-6h6v6H112z M112,172.5v-6h6v6H112z M112,196.5v-18h6v18H112z M112,208.5v-6h6v6
		H112z M118,40.5v-6h6v6H118z M118,64.5v-18h6v18H118z M118,76.5v-6h6v6H118z M118,94.5v-12h6v12H118z M118,112.5v-6h6v6H118z
		 M118,142.5v-24h6v24H118z M118,154.5v-6h6v6H118z M118,172.5v-6h6v6H118z M118,196.5v-18h6v18H118z M118,208.5v-6h6v6H118z
		 M124,40.5v-6h6v6H124z M124,76.5v-6h6v6H124z M124,160.5v-78h6v78H124z M124,172.5v-6h6v6H124z M124,208.5v-6h6v6H124z M130,76.5
		v-42h6v42H130z M130,88.5v-6h6v6H130z M130,100.5v-6h6v6H130z M130,112.5v-6h6v6H130z M130,124.5v-6h6v6H130z M130,136.5v-6h6v6
		H130z M130,148.5v-6h6v6H130z M130,160.5v-6h6v6H130z M130,208.5v-42h6v42H130z M136,100.5v-18h6v18H136z M136,130.5v-18h6v18H136z
		 M136,142.5v-6h6v6H136z M136,160.5v-12h6v12H136z M142,52.5v-18h6v18H142z M142,64.5v-6h6v6H142z M142,76.5v-6h6v6H142z M142,88.5
		v-6h6v6H142z M142,100.5v-6h6v6H142z M142,118.5v-12h6v12H142z M142,142.5v-18h6v18H142z M142,190.5v-36h6v36H142z M142,208.5v-6h6
		v6H142z M148,52.5v-6h6v6H148z M148,112.5v-30h6v30H148z M148,136.5v-18h6v18H148z M148,166.5v-12h6v12H148z M148,208.5v-12h6v12
		H148z M154,40.5v-6h6v6H154z M154,76.5v-30h6v30H154z M154,112.5v-6h6v6H154z M154,148.5v-24h6v24H154z M154,166.5v-12h6v12H154z
		 M154,184.5v-6h6v6H154z M154,196.5v-6h6v6H154z M154,208.5v-6h6v6H154z M160,46.5v-12h6v12H160z M160,58.5v-6h6v6H160z M160,70.5
		v-6h6v6H160z M160,94.5v-6h6v6H160z M160,130.5v-18h6v18H160z M160,160.5v-6h6v6H160z M160,184.5v-6h6v6H160z M160,208.5v-6h6v6
		H160z M166,40.5v-6h6v6H166z M166,52.5v-6h6v6H166z M166,82.5v-12h6v12H166z M166,124.5v-36h6v36H166z M166,136.5v-6h6v6H166z
		 M166,166.5v-12h6v12H166z M166,196.5v-18h6v18H166z M166,208.5v-6h6v6H166z M172,124.5v-48h6v48H172z M172,142.5v-6h6v6H172z
		 M172,160.5v-6h6v6H172z M172,208.5v-30h6v30H172z M178,64.5v-6h6v6H178z M178,76.5v-6h6v6H178z M178,118.5v-6h6v6H178z M178,142.5
		v-12h6v12H178z M178,184.5v-36h6v36H178z M184,40.5v-6h6v6H184z M184,52.5v-6h6v6H184z M184,70.5v-12h6v12H184z M184,82.5v-6h6v6
		H184z M184,100.5v-6h6v6H184z M184,112.5v-6h6v6H184z M184,130.5v-6h6v6H184z M184,148.5v-6h6v6H184z M184,160.5v-6h6v6H184z
		 M184,178.5v-6h6v6H184z M184,196.5v-6h6v6H184z M184,208.5v-6h6v6H184z M190,82.5v-48h6v48H190z M190,124.5v-36h6v36H190z
		 M190,142.5v-12h6v12H190z M190,160.5v-6h6v6H190z M190,202.5v-6h6v6H190z M196,46.5v-6h6v6H196z M196,64.5v-12h6v12H196z
		 M196,94.5v-12h6v12H196z M196,106.5v-6h6v6H196z M196,124.5v-6h6v6H196z M196,208.5v-54h6v54H196z M202,40.5v-6h6v6H202z
		 M202,52.5v-6h6v6H202z M202,76.5v-12h6v12H202z M202,94.5v-12h6v12H202z M202,106.5v-6h6v6H202z M202,124.5v-12h6v12H202z
		 M202,142.5v-6h6v6H202z M202,166.5v-6h6v6H202z M202,190.5v-12h6v12H202z M202,202.5v-6h6v6H202z M208,46.5v-6h6v6H208z M208,64.5
		v-12h6v12H208z M208,82.5v-6h6v6H208z M208,94.5v-6h6v6H208z M208,112.5v-6h6v6H208z M208,124.5v-6h6v6H208z M208,154.5v-18h6v18
		H208z M208,184.5v-18h6v18H208z M208,208.5v-6h6v6H208z M214,58.5v-12h6v12H214z M214,82.5v-18h6v18H214z M214,106.5v-12h6v12H214z
		 M214,124.5v-6h6v6H214z M214,148.5v-12h6v12H214z M214,184.5v-30h6v30H214z M214,196.5v-6h6v6H214z M214,208.5v-6h6v6H214z
		 M220,88.5v-6h6v6H220z M220,106.5v-12h6v12H220z M220,130.5v-6h6v6H220z M220,160.5v-6h6v6H220z M220,190.5v-12h6v12H220z
		 M226,76.5v-42h6v42H226z M226,124.5v-30h6v30H226z M226,160.5v-12h6v12H226z M226,172.5v-6h6v6H226z M226,184.5v-6h6v6H226z
		 M226,208.5v-12h6v12H226z M232,40.5v-6h6v6H232z M232,76.5v-6h6v6H232z M232,94.5v-6h6v6H232z M232,106.5v-6h6v6H232z M232,136.5
		v-24h6v24H232z M232,160.5v-18h6v18H232z M232,184.5v-6h6v6H232z M232,202.5v-12h6v12H232z M238,40.5v-6h6v6H238z M238,64.5v-18h6
		v18H238z M238,76.5v-6h6v6H238z M238,94.5v-12h6v12H238z M238,106.5v-6h6v6H238z M238,130.5v-18h6v18H238z M238,184.5v-48h6v48H238
		z M238,208.5v-18h6v18H238z M244,40.5v-6h6v6H244z M244,64.5v-18h6v18H244z M244,76.5v-6h6v6H244z M244,94.5v-6h6v6H244z
		 M244,106.5v-6h6v6H244z M244,136.5v-24h6v24H244z M244,148.5v-6h6v6H244z M244,160.5v-6h6v6H244z M244,184.5v-18h6v18H244z
		 M244,202.5v-6h6v6H244z M250,40.5v-6h6v6H250z M250,64.5v-18h6v18H250z M250,76.5v-6h6v6H250z M250,88.5v-6h6v6H250z M250,118.5
		v-6h6v6H250z M250,130.5v-6h6v6H250z M250,160.5v-12h6v12H250z M250,172.5v-6h6v6H250z M250,202.5v-6h6v6H250z M256,40.5v-6h6v6
		H256z M256,76.5v-6h6v6H256z M256,88.5v-6h6v6H256z M256,106.5v-12h6v12H256z M256,118.5v-6h6v6H256z M256,130.5v-6h6v6H256z
		 M256,142.5v-6h6v6H256z M256,154.5v-6h6v6H256z M256,166.5v-6h6v6H256z M256,196.5v-12h6v12H256z M262,76.5v-42h6v42H262z
		 M262,88.5v-6h6v6H262z M262,124.5v-18h6v18H262z M262,160.5v-18h6v18H262z M262,178.5v-6h6v6H262z M262,202.5v-12h6v12H262z"/>
</g>
<g id="front">
	
		<path fill-rule="evenodd" clip-rule="evenodd" fill="#F8941C" stroke="#FFFFFF" stroke-width="2" stroke-linecap="round" stroke-linejoin="round" stroke-miterlimit="10" d="
		M34.14,80h149.72c13.06,0,23.64,10.58,23.64,23.64v315.72c0,13.06-10.58,23.64-23.64,23.64H34.14c-13.06,0-23.64-10.58-23.64-23.64
		V103.64C10.5,90.58,21.08,80,34.14,80z"/>
	
		<path fill-rule="evenodd" clip-rule="evenodd" fill="#FAB35F" stroke="#FFFFFF" stroke-linecap="round" stroke-linejoin="round" stroke-miterlimit="10" d="
		M93,405c0-8.84,7.16-16,16-16s16,7.16,16,16s-7.16,16-16,16S93,413.84,93,405z"/>
	
		<path fill-rule="evenodd" clip-rule="evenodd" fill="#FAB35F" stroke="#FFFFFF" stroke-linecap="round" stroke-linejoin="round" stroke-miterlimit="10" d="
		M74.5,107.5c0-2.49,2.01-4.5,4.5-4.5s4.5,2.01,4.5,4.5S81.49,112,79,112S74.5,109.99,74.5,107.5z"/>
	<path fill-rule="evenodd" clip-rule="evenodd" fill="#FAB35F" d="M89.26,104h40.48c0.97,0,1.76,1.34,1.76,3s-0.79,3-1.76,3H89.26
		c-0.97,0-1.76-1.34-1.76-3S88.29,104,89.26,104z"/>
	
		<path fill-rule="evenodd" clip-rule="evenodd" fill="#FAB35F" stroke="#FFFFFF" stroke-linecap="round" stroke-linejoin="round" stroke-miterlimit="10" d="
		M106.21,399h6.58c2.05,0,3.71,1.66,3.71,3.7v5.6c0,2.04-1.66,3.7-3.71,3.7h-6.58c-2.05,0-3.71-1.66-3.71-3.7v-5.6
		C102.5,400.66,104.16,399,106.21,399z"/>
	<rect x="24.5" y="127" fill-rule="evenodd" clip-rule="evenodd" fill="#FAB35F" width="170" height="252"/>
	<polygon fill-rule="evenodd" clip-rule="evenodd" fill="#FBC98C" points="70.38,127 63.5,207 157.5,207 157.5,303 194.5,278.63 
		194.5,222 194.5,127 	"/>
	<path fill-rule="evenodd" clip-rule="evenodd" fill="#FAB35F" d="M8.48,133h1.04c0.54,0,0.98,0.44,0.98,0.98v14.04
		c0,0.54-0.44,0.98-0.98,0.98H8.48c-0.54,0-0.98-0.44-0.98-0.98v-14.04C7.5,133.44,7.94,133,8.48,133z"/>
	<path fill-rule="evenodd" clip-rule="evenodd" fill="#FAB35F" d="M8.48,161h1.04c0.54,0,0.98,0.27,0.98,0.61v8.78
		c0,0.34-0.44,0.61-0.98,0.61H8.48c-0.54,0-0.98-0.27-0.98-0.61v-8.78C7.5,161.27,7.94,161,8.48,161z"/>
	
		<rect x="64.5" y="211" fill-rule="evenodd" clip-rule="evenodd" fill="#FFFFFF" stroke="#FFFFFF" stroke-width="3" stroke-linecap="round" stroke-linejoin="round" stroke-miterlimit="10" width="90" height="90"/>
	<path fill-rule="evenodd" clip-rule="evenodd" fill="#FAB35F" d="M8.48,181h1.04c0.54,0,0.98,0.27,0.98,0.61v8.78
		c0,0.34-0.44,0.61-0.98,0.61H8.48c-0.54,0-0.98-0.27-0.98-0.61v-8.78C7.5,181.27,7.94,181,8.48,181z"/>
	<path fill="#F8941C" d="M66.5,234v-21h3v21H66.5z M66.5,243v-6h3v6H66.5z M66.5,252v-3h3v3H66.5z M66.5,258v-3h3v3H66.5z M66.5,264
		v-3h3v3H66.5z M66.5,300v-21h3v21H66.5z M69.5,216v-3h3v3H69.5z M69.5,234v-3h3v3H69.5z M69.5,258v-12h3v12H69.5z M69.5,282v-3h3v3
		H69.5z M69.5,300v-3h3v3H69.5z M72.5,216v-3h3v3H72.5z M72.5,228v-9h3v9H72.5z M72.5,234v-3h3v3H72.5z M72.5,255v-12h3v12H72.5z
		 M72.5,270v-12h3v12H72.5z M72.5,276v-3h3v3H72.5z M72.5,282v-3h3v3H72.5z M72.5,294v-9h3v9H72.5z M72.5,300v-3h3v3H72.5z
		 M75.5,216v-3h3v3H75.5z M75.5,228v-9h3v9H75.5z M75.5,234v-3h3v3H75.5z M75.5,240v-3h3v3H75.5z M75.5,246v-3h3v3H75.5z M75.5,255
		v-3h3v3H75.5z M75.5,267v-3h3v3H75.5z M75.5,273v-3h3v3H75.5z M75.5,282v-3h3v3H75.5z M75.5,294v-9h3v9H75.5z M75.5,300v-3h3v3
		H75.5z M78.5,216v-3h3v3H78.5z M78.5,228v-9h3v9H78.5z M78.5,234v-3h3v3H78.5z M78.5,243v-6h3v6H78.5z M78.5,252v-3h3v3H78.5z
		 M78.5,267v-12h3v12H78.5z M78.5,273v-3h3v3H78.5z M78.5,282v-3h3v3H78.5z M78.5,294v-9h3v9H78.5z M78.5,300v-3h3v3H78.5z
		 M81.5,216v-3h3v3H81.5z M81.5,234v-3h3v3H81.5z M81.5,276v-39h3v39H81.5z M81.5,282v-3h3v3H81.5z M81.5,300v-3h3v3H81.5z
		 M84.5,234v-21h3v21H84.5z M84.5,240v-3h3v3H84.5z M84.5,246v-3h3v3H84.5z M84.5,252v-3h3v3H84.5z M84.5,258v-3h3v3H84.5z
		 M84.5,264v-3h3v3H84.5z M84.5,270v-3h3v3H84.5z M84.5,276v-3h3v3H84.5z M84.5,300v-21h3v21H84.5z M87.5,246v-9h3v9H87.5z
		 M87.5,261v-9h3v9H87.5z M87.5,267v-3h3v3H87.5z M87.5,276v-6h3v6H87.5z M90.5,222v-9h3v9H90.5z M90.5,228v-3h3v3H90.5z M90.5,234
		v-3h3v3H90.5z M90.5,240v-3h3v3H90.5z M90.5,246v-3h3v3H90.5z M90.5,255v-6h3v6H90.5z M90.5,267v-9h3v9H90.5z M90.5,291v-18h3v18
		H90.5z M90.5,300v-3h3v3H90.5z M93.5,222v-3h3v3H93.5z M93.5,252v-15h3v15H93.5z M93.5,264v-9h3v9H93.5z M93.5,279v-6h3v6H93.5z
		 M93.5,300v-6h3v6H93.5z M96.5,216v-3h3v3H96.5z M96.5,234v-15h3v15H96.5z M96.5,252v-3h3v3H96.5z M96.5,270v-12h3v12H96.5z
		 M96.5,279v-6h3v6H96.5z M96.5,288v-3h3v3H96.5z M96.5,294v-3h3v3H96.5z M96.5,300v-3h3v3H96.5z M99.5,219v-6h3v6H99.5z M99.5,225
		v-3h3v3H99.5z M99.5,231v-3h3v3H99.5z M99.5,243v-3h3v3H99.5z M99.5,261v-9h3v9H99.5z M99.5,276v-3h3v3H99.5z M99.5,288v-3h3v3
		H99.5z M99.5,300v-3h3v3H99.5z M102.5,216v-3h3v3H102.5z M102.5,222v-3h3v3H102.5z M102.5,237v-6h3v6H102.5z M102.5,258v-18h3v18
		H102.5z M102.5,264v-3h3v3H102.5z M102.5,279v-6h3v6H102.5z M102.5,294v-9h3v9H102.5z M102.5,300v-3h3v3H102.5z M105.5,258v-24h3
		v24H105.5z M105.5,267v-3h3v3H105.5z M105.5,276v-3h3v3H105.5z M105.5,300v-15h3v15H105.5z M108.5,228v-3h3v3H108.5z M108.5,234v-3
		h3v3H108.5z M108.5,255v-3h3v3H108.5z M108.5,267v-6h3v6H108.5z M108.5,288v-18h3v18H108.5z M111.5,216v-3h3v3H111.5z M111.5,222
		v-3h3v3H111.5z M111.5,231v-6h3v6H111.5z M111.5,237v-3h3v3H111.5z M111.5,246v-3h3v3H111.5z M111.5,252v-3h3v3H111.5z M111.5,261
		v-3h3v3H111.5z M111.5,270v-3h3v3H111.5z M111.5,276v-3h3v3H111.5z M111.5,285v-3h3v3H111.5z M111.5,294v-3h3v3H111.5z M111.5,300
		v-3h3v3H111.5z M114.5,237v-24h3v24H114.5z M114.5,258v-18h3v18H114.5z M114.5,267v-6h3v6H114.5z M114.5,276v-3h3v3H114.5z
		 M114.5,297v-3h3v3H114.5z M117.5,219v-3h3v3H117.5z M117.5,228v-6h3v6H117.5z M117.5,243v-6h3v6H117.5z M117.5,249v-3h3v3H117.5z
		 M117.5,258v-3h3v3H117.5z M117.5,300v-27h3v27H117.5z M120.5,216v-3h3v3H120.5z M120.5,222v-3h3v3H120.5z M120.5,234v-6h3v6H120.5
		z M120.5,243v-6h3v6H120.5z M120.5,249v-3h3v3H120.5z M120.5,258v-6h3v6H120.5z M120.5,267v-3h3v3H120.5z M120.5,279v-3h3v3H120.5z
		 M120.5,291v-6h3v6H120.5z M120.5,297v-3h3v3H120.5z M123.5,219v-3h3v3H123.5z M123.5,228v-6h3v6H123.5z M123.5,237v-3h3v3H123.5z
		 M123.5,243v-3h3v3H123.5z M123.5,252v-3h3v3H123.5z M123.5,258v-3h3v3H123.5z M123.5,273v-9h3v9H123.5z M123.5,288v-9h3v9H123.5z
		 M123.5,300v-3h3v3H123.5z M126.5,225v-6h3v6H126.5z M126.5,237v-9h3v9H126.5z M126.5,249v-6h3v6H126.5z M126.5,258v-3h3v3H126.5z
		 M126.5,270v-6h3v6H126.5z M126.5,288v-15h3v15H126.5z M126.5,294v-3h3v3H126.5z M126.5,300v-3h3v3H126.5z M129.5,240v-3h3v3H129.5
		z M129.5,249v-6h3v6H129.5z M129.5,261v-3h3v3H129.5z M129.5,276v-3h3v3H129.5z M129.5,291v-6h3v6H129.5z M132.5,234v-21h3v21
		H132.5z M132.5,258v-15h3v15H132.5z M132.5,276v-6h3v6H132.5z M132.5,282v-3h3v3H132.5z M132.5,288v-3h3v3H132.5z M132.5,300v-6h3
		v6H132.5z M135.5,216v-3h3v3H135.5z M135.5,234v-3h3v3H135.5z M135.5,243v-3h3v3H135.5z M135.5,249v-3h3v3H135.5z M135.5,264v-12h3
		v12H135.5z M135.5,276v-9h3v9H135.5z M135.5,288v-3h3v3H135.5z M135.5,297v-6h3v6H135.5z M138.5,216v-3h3v3H138.5z M138.5,228v-9h3
		v9H138.5z M138.5,234v-3h3v3H138.5z M138.5,243v-6h3v6H138.5z M138.5,249v-3h3v3H138.5z M138.5,261v-9h3v9H138.5z M138.5,288v-24h3
		v24H138.5z M138.5,300v-9h3v9H138.5z M141.5,216v-3h3v3H141.5z M141.5,228v-9h3v9H141.5z M141.5,234v-3h3v3H141.5z M141.5,243v-3h3
		v3H141.5z M141.5,249v-3h3v3H141.5z M141.5,264v-12h3v12H141.5z M141.5,270v-3h3v3H141.5z M141.5,276v-3h3v3H141.5z M141.5,288v-9
		h3v9H141.5z M141.5,297v-3h3v3H141.5z M144.5,216v-3h3v3H144.5z M144.5,228v-9h3v9H144.5z M144.5,234v-3h3v3H144.5z M144.5,240v-3
		h3v3H144.5z M144.5,255v-3h3v3H144.5z M144.5,261v-3h3v3H144.5z M144.5,276v-6h3v6H144.5z M144.5,282v-3h3v3H144.5z M144.5,297v-3
		h3v3H144.5z M147.5,216v-3h3v3H147.5z M147.5,234v-3h3v3H147.5z M147.5,240v-3h3v3H147.5z M147.5,249v-6h3v6H147.5z M147.5,255v-3
		h3v3H147.5z M147.5,261v-3h3v3H147.5z M147.5,267v-3h3v3H147.5z M147.5,273v-3h3v3H147.5z M147.5,279v-3h3v3H147.5z M147.5,294v-6
		h3v6H147.5z M150.5,234v-21h3v21H150.5z M150.5,240v-3h3v3H150.5z M150.5,258v-9h3v9H150.5z M150.5,276v-9h3v9H150.5z M150.5,285
		v-3h3v3H150.5z M150.5,297v-6h3v6H150.5z"/>
</g>
</svg>
